<svg width="218" height="46" viewBox="0 0 218 46" fill="none" xmlns="http://www.w3.org/2000/svg">
<g clip-path="url(#clip0_1_4)">
<path d="M19.3097 17.2756C19.196 16.1297 18.7083 15.2396 17.8466 14.6051C16.9848 13.9706 15.8153 13.6534 14.3381 13.6534C13.3343 13.6534 12.4867 13.7955 11.7955 14.0795C11.1042 14.3542 10.5739 14.7377 10.2045 15.2301C9.8447 15.7225 9.66477 16.2812 9.66477 16.9062C9.64583 17.4271 9.75473 17.8816 9.99148 18.2699C10.2377 18.6581 10.5739 18.9943 11 19.2784C11.4261 19.553 11.9186 19.7945 12.4773 20.0028C13.036 20.2017 13.6326 20.3722 14.267 20.5142L16.8807 21.1392C18.1496 21.4233 19.3144 21.8021 20.375 22.2756C21.4356 22.7491 22.3542 23.3314 23.1307 24.0227C23.9072 24.714 24.5085 25.5284 24.9347 26.4659C25.3703 27.4034 25.5928 28.4782 25.6023 29.6903C25.5928 31.4706 25.1383 33.0142 24.2386 34.321C23.3485 35.6184 22.0606 36.6269 20.375 37.3466C18.6989 38.0568 16.6771 38.4119 14.3097 38.4119C11.9612 38.4119 9.91572 38.0521 8.1733 37.3324C6.44034 36.6127 5.08617 35.5473 4.1108 34.1364C3.14489 32.7159 2.63826 30.9593 2.59091 28.8665H8.54261C8.6089 29.8419 8.88826 30.6562 9.38068 31.3097C9.88258 31.9536 10.5502 32.4413 11.3835 32.7727C12.2263 33.0947 13.178 33.2557 14.2386 33.2557C15.2803 33.2557 16.1847 33.1042 16.9517 32.8011C17.7282 32.4981 18.3295 32.0767 18.7557 31.5369C19.1818 30.9972 19.3949 30.3769 19.3949 29.6761C19.3949 29.0227 19.2008 28.4735 18.8125 28.0284C18.4337 27.5833 17.875 27.2045 17.1364 26.892C16.4072 26.5795 15.5123 26.2955 14.4517 26.0398L11.2841 25.2443C8.83144 24.6477 6.89489 23.715 5.47443 22.446C4.05398 21.1771 3.34848 19.4678 3.35795 17.3182C3.34848 15.5568 3.81723 14.018 4.7642 12.7017C5.72064 11.3854 7.0322 10.358 8.69886 9.61932C10.3655 8.88068 12.2595 8.51136 14.3807 8.51136C16.5398 8.51136 18.4242 8.88068 20.0341 9.61932C21.6534 10.358 22.9129 11.3854 23.8125 12.7017C24.7121 14.018 25.1761 15.5426 25.2045 17.2756H19.3097ZM35.6768 25.3864V38H29.6257V8.90909H35.5064V20.0312H35.7621C36.2545 18.7434 37.05 17.7348 38.1484 17.0057C39.2469 16.267 40.6248 15.8977 42.282 15.8977C43.7971 15.8977 45.1181 16.2292 46.245 16.892C47.3814 17.5455 48.2621 18.4877 48.8871 19.7188C49.5215 20.9403 49.834 22.4034 49.8246 24.108V38H43.7734V25.1875C43.7829 23.8428 43.442 22.7964 42.7507 22.0483C42.0689 21.3002 41.1125 20.9261 39.8814 20.9261C39.0575 20.9261 38.3284 21.1013 37.6939 21.4517C37.0689 21.8021 36.5765 22.3134 36.2166 22.9858C35.8662 23.6487 35.6863 24.4489 35.6768 25.3864ZM64.4446 38.4261C62.2382 38.4261 60.33 37.9574 58.7202 37.0199C57.1198 36.0729 55.884 34.7566 55.0128 33.071C54.1416 31.3759 53.706 29.411 53.706 27.1761C53.706 24.9223 54.1416 22.9527 55.0128 21.267C55.884 19.572 57.1198 18.2557 58.7202 17.3182C60.33 16.3712 62.2382 15.8977 64.4446 15.8977C66.651 15.8977 68.5545 16.3712 70.1548 17.3182C71.7647 18.2557 73.0052 19.572 73.8764 21.267C74.7476 22.9527 75.1832 24.9223 75.1832 27.1761C75.1832 29.411 74.7476 31.3759 73.8764 33.071C73.0052 34.7566 71.7647 36.0729 70.1548 37.0199C68.5545 37.9574 66.651 38.4261 64.4446 38.4261ZM64.473 33.7386C65.4768 33.7386 66.3149 33.4545 66.9872 32.8864C67.6596 32.3087 68.1662 31.5227 68.5071 30.5284C68.8575 29.5341 69.0327 28.4025 69.0327 27.1335C69.0327 25.8646 68.8575 24.733 68.5071 23.7386C68.1662 22.7443 67.6596 21.9583 66.9872 21.3807C66.3149 20.803 65.4768 20.5142 64.473 20.5142C63.4598 20.5142 62.6075 20.803 61.9162 21.3807C61.2344 21.9583 60.7183 22.7443 60.3679 23.7386C60.027 24.733 59.8565 25.8646 59.8565 27.1335C59.8565 28.4025 60.027 29.5341 60.3679 30.5284C60.7183 31.5227 61.2344 32.3087 61.9162 32.8864C62.6075 33.4545 63.4598 33.7386 64.473 33.7386ZM79.1179 46.1818V16.1818H85.0838V19.8466H85.3537C85.6188 19.2595 86.0024 18.6629 86.5043 18.0568C87.0156 17.4413 87.6785 16.9299 88.4929 16.5227C89.3168 16.1061 90.3395 15.8977 91.5611 15.8977C93.152 15.8977 94.6198 16.3144 95.9645 17.1477C97.3092 17.9716 98.384 19.2169 99.1889 20.8835C99.9938 22.5407 100.396 24.6193 100.396 27.1193C100.396 29.553 100.003 31.608 99.2173 33.2841C98.4408 34.9508 97.3802 36.215 96.0355 37.0767C94.7003 37.929 93.2041 38.3551 91.5469 38.3551C90.3726 38.3551 89.3736 38.161 88.5497 37.7727C87.7353 37.3845 87.0677 36.8968 86.5469 36.3097C86.026 35.7131 85.6283 35.1117 85.3537 34.5057H85.169V46.1818H79.1179ZM85.0412 27.0909C85.0412 28.3883 85.2211 29.5199 85.581 30.4858C85.9408 31.4517 86.4616 32.2045 87.1435 32.7443C87.8253 33.2746 88.6539 33.5398 89.6293 33.5398C90.6141 33.5398 91.4474 33.2699 92.1293 32.7301C92.8111 32.1809 93.3272 31.4233 93.6776 30.4574C94.0374 29.482 94.2173 28.3598 94.2173 27.0909C94.2173 25.8314 94.0421 24.7235 93.6918 23.767C93.3414 22.8106 92.8253 22.0625 92.1435 21.5227C91.4616 20.983 90.6236 20.7131 89.6293 20.7131C88.6444 20.7131 87.8111 20.9735 87.1293 21.4943C86.4569 22.0152 85.9408 22.7538 85.581 23.7102C85.2211 24.6667 85.0412 25.7936 85.0412 27.0909Z" fill="white"/>
<path d="M123.834 18.3125C123.635 17.6212 123.356 17.0104 122.996 16.4801C122.636 15.9403 122.196 15.4858 121.675 15.1165C121.163 14.7377 120.576 14.4489 119.913 14.25C119.26 14.0511 118.536 13.9517 117.74 13.9517C116.253 13.9517 114.946 14.321 113.82 15.0597C112.702 15.7983 111.831 16.8731 111.206 18.2841C110.581 19.6856 110.268 21.3996 110.268 23.4261C110.268 25.4527 110.576 27.1761 111.192 28.5966C111.807 30.017 112.679 31.1013 113.805 31.8494C114.932 32.5881 116.263 32.9574 117.797 32.9574C119.189 32.9574 120.377 32.7112 121.362 32.2188C122.357 31.7169 123.114 31.0114 123.635 30.1023C124.165 29.1932 124.43 28.1184 124.43 26.8778L125.68 27.0625H118.18V22.4318H130.354V26.0966C130.354 28.6534 129.814 30.8504 128.734 32.6875C127.655 34.5152 126.168 35.9261 124.274 36.9205C122.38 37.9053 120.212 38.3977 117.768 38.3977C115.041 38.3977 112.645 37.7964 110.581 36.5938C108.517 35.3816 106.907 33.6629 105.751 31.4375C104.606 29.2027 104.033 26.5511 104.033 23.483C104.033 21.125 104.374 19.0227 105.055 17.1761C105.747 15.3201 106.713 13.7481 107.953 12.4602C109.194 11.1723 110.638 10.1922 112.286 9.51989C113.933 8.84754 115.718 8.51136 117.641 8.51136C119.288 8.51136 120.822 8.75284 122.243 9.2358C123.663 9.70928 124.923 10.3816 126.021 11.2528C127.129 12.1241 128.034 13.161 128.734 14.3636C129.435 15.5568 129.885 16.8731 130.084 18.3125H123.834ZM141.082 38.4119C139.69 38.4119 138.449 38.1705 137.36 37.6875C136.271 37.1951 135.409 36.4706 134.775 35.5142C134.15 34.5483 133.837 33.3456 133.837 31.9062C133.837 30.6941 134.06 29.6761 134.505 28.8523C134.95 28.0284 135.556 27.3655 136.323 26.8636C137.09 26.3617 137.961 25.983 138.937 25.7273C139.922 25.4716 140.954 25.2917 142.033 25.1875C143.302 25.0549 144.325 24.9318 145.102 24.8182C145.878 24.6951 146.442 24.5152 146.792 24.2784C147.142 24.0417 147.317 23.6913 147.317 23.2273V23.142C147.317 22.2424 147.033 21.5464 146.465 21.054C145.906 20.5616 145.111 20.3153 144.079 20.3153C142.99 20.3153 142.123 20.5568 141.479 21.0398C140.835 21.5133 140.409 22.1098 140.201 22.8295L134.604 22.375C134.888 21.0492 135.447 19.9034 136.281 18.9375C137.114 17.9621 138.189 17.214 139.505 16.6932C140.831 16.1629 142.365 15.8977 144.107 15.8977C145.319 15.8977 146.479 16.0398 147.587 16.3239C148.705 16.608 149.694 17.0483 150.556 17.6449C151.427 18.2415 152.114 19.0085 152.616 19.946C153.118 20.8741 153.369 21.9867 153.369 23.2841V38H147.63V34.9744H147.46C147.109 35.6562 146.64 36.2576 146.053 36.7784C145.466 37.2898 144.761 37.6922 143.937 37.9858C143.113 38.2699 142.161 38.4119 141.082 38.4119ZM142.815 34.2358C143.705 34.2358 144.491 34.0606 145.173 33.7102C145.854 33.3504 146.389 32.8674 146.778 32.2614C147.166 31.6553 147.36 30.9687 147.36 30.2017V27.8864C147.171 28.0095 146.91 28.1231 146.579 28.2273C146.257 28.322 145.892 28.4119 145.485 28.4972C145.078 28.5729 144.671 28.6439 144.263 28.7102C143.856 28.767 143.487 28.8191 143.156 28.8665C142.445 28.9706 141.825 29.1364 141.295 29.3636C140.764 29.5909 140.353 29.8987 140.059 30.2869C139.765 30.6657 139.619 31.1392 139.619 31.7074C139.619 32.5312 139.917 33.161 140.513 33.5966C141.12 34.0227 141.887 34.2358 142.815 34.2358ZM158.063 38V16.1818H163.83V20.0312H164.086C164.54 18.7528 165.298 17.7443 166.359 17.0057C167.419 16.267 168.688 15.8977 170.165 15.8977C171.662 15.8977 172.935 16.2718 173.987 17.0199C175.038 17.7585 175.738 18.7623 176.089 20.0312H176.316C176.761 18.7812 177.566 17.7822 178.731 17.0341C179.905 16.2765 181.292 15.8977 182.893 15.8977C184.929 15.8977 186.581 16.5464 187.85 17.8438C189.129 19.1316 189.768 20.9593 189.768 23.3267V38H183.731V24.5199C183.731 23.3078 183.409 22.3987 182.765 21.7926C182.121 21.1866 181.316 20.8835 180.35 20.8835C179.252 20.8835 178.395 21.2339 177.779 21.9347C177.164 22.6259 176.856 23.5398 176.856 24.6761V38H170.989V24.392C170.989 23.322 170.682 22.4697 170.066 21.8352C169.46 21.2008 168.66 20.8835 167.665 20.8835C166.993 20.8835 166.387 21.054 165.847 21.3949C165.317 21.7263 164.896 22.1951 164.583 22.8011C164.271 23.3977 164.114 24.0985 164.114 24.9034V38H158.063ZM204.491 38.4261C202.246 38.4261 200.315 37.9716 198.695 37.0625C197.085 36.1439 195.845 34.8466 194.974 33.1705C194.103 31.4848 193.667 29.4915 193.667 27.1903C193.667 24.946 194.103 22.9763 194.974 21.2812C195.845 19.5862 197.071 18.2652 198.653 17.3182C200.244 16.3712 202.109 15.8977 204.249 15.8977C205.689 15.8977 207.029 16.1297 208.269 16.5938C209.519 17.0483 210.608 17.7348 211.536 18.6534C212.474 19.572 213.203 20.7273 213.724 22.1193C214.245 23.5019 214.505 25.1212 214.505 26.9773V28.6392H196.082V24.8892H208.809C208.809 24.018 208.62 23.2462 208.241 22.5739C207.862 21.9015 207.336 21.3759 206.664 20.9972C206.001 20.6089 205.229 20.4148 204.349 20.4148C203.43 20.4148 202.616 20.6278 201.906 21.054C201.205 21.4706 200.656 22.0341 200.258 22.7443C199.86 23.4451 199.656 24.2263 199.647 25.0881V28.6534C199.647 29.733 199.846 30.6657 200.244 31.4517C200.651 32.2377 201.224 32.8438 201.962 33.2699C202.701 33.696 203.577 33.9091 204.59 33.9091C205.263 33.9091 205.878 33.8144 206.437 33.625C206.996 33.4356 207.474 33.1515 207.871 32.7727C208.269 32.3939 208.572 31.9299 208.781 31.3807L214.377 31.75C214.093 33.0947 213.511 34.2689 212.63 35.2727C211.759 36.267 210.632 37.0436 209.249 37.6023C207.876 38.1515 206.29 38.4261 204.491 38.4261Z" fill="#00D1FF"/>
</g>
<defs>
<clipPath id="clip0_1_4">
<rect width="218" height="46" fill="white"/>
</clipPath>
</defs>
</svg>
